# xmcd
#
# Track frame offsets: 
#        150
#        25089
#        53204
#        77364
#        93032
#        112723
#        141350
#        173375
#        214183
#        247866
#        273475
#        306499
#
# Disc length: 4786 seconds
#
# Revision: 0
# Processed by: cddbd v1.5.2PL0 Copyright (c) Steve Scherf et al.
# Submitted via: ExactAudioCopy v1.0b3
#
DISCID=8f12b00c
DTITLE=Hans Theessink - Homecooking - Best of LIVE
DYEAR=2011
DGENRE=Blues
TTITLE0=Behind the sun
TTITLE1=Believe the devil took her hand
TTITLE2=Circles
TTITLE3=Bridges
TTITLE4=Brand New Dawn
TTITLE5=Zambezi
TTITLE6=Dream
TTITLE7=Rain
TTITLE8=Dough Roller Blues
TTITLE9=Soul on fire
TTITLE10=Little Girl
TTITLE11=Jesus on the mainline
EXTD=
EXTT0=
EXTT1=
EXTT2=
EXTT3=
EXTT4=
EXTT5=
EXTT6=
EXTT7=
EXTT8=
EXTT9=
EXTT10=
EXTT11=
PLAYORDER=
